<?xml version="1.0" ?><!-- Uploaded to: SVG Repo, www.svgrepo.com, Generator: SVG Repo Mixer Tools -->
<svg fill="#000000" width="800px" height="800px" viewBox="0 0 35 35" data-name="Layer 2" id="ac59cc0a-8895-4ad6-9f65-67566b7e9681" xmlns="http://www.w3.org/2000/svg"><path d="M27.059,31.25H7.941A4.2,4.2,0,0,1,3.75,27.059V7.941A4.2,4.2,0,0,1,7.941,3.75H27.059A4.2,4.2,0,0,1,31.25,7.941V27.059A4.2,4.2,0,0,1,27.059,31.25ZM7.941,6.25A1.693,1.693,0,0,0,6.25,7.941V27.059A1.693,1.693,0,0,0,7.941,28.75H27.059a1.693,1.693,0,0,0,1.691-1.691V7.941A1.693,1.693,0,0,0,27.059,6.25Z"/><path d="M22.119,24.75H12.881a2.635,2.635,0,0,1-2.631-2.631V12.881a2.634,2.634,0,0,1,2.631-2.631h9.238a2.634,2.634,0,0,1,2.631,2.631v9.238A2.635,2.635,0,0,1,22.119,24.75Zm-9.238-12a.131.131,0,0,0-.131.131v9.238a.131.131,0,0,0,.131.131h9.238a.131.131,0,0,0,.131-.131V12.881a.131.131,0,0,0-.131-.131Z"/><path d="M12.982,4.4A1.25,1.25,0,0,1,11.734,3.2l-.034-1A1.25,1.25,0,0,1,12.908.905,1.263,1.263,0,0,1,14.2,2.112l.034,1A1.252,1.252,0,0,1,13.025,4.4Z"/><path d="M17.516,4.4A1.251,1.251,0,0,1,16.267,3.2l-.033-1A1.249,1.249,0,0,1,17.442.905a1.223,1.223,0,0,1,1.291,1.208l.033,1A1.25,1.25,0,0,1,17.558,4.4Z"/><path d="M22.049,4.4A1.251,1.251,0,0,1,20.8,3.2l-.033-1A1.249,1.249,0,0,1,21.975.905a1.22,1.22,0,0,1,1.291,1.208l.033,1A1.25,1.25,0,0,1,22.091,4.4Z"/><path d="M32.081,23.334a1.25,1.25,0,0,1-.041-2.5l1-.034a1.25,1.25,0,1,1,.083,2.5l-1,.034Z"/><path d="M32.081,18.8a1.25,1.25,0,0,1-.042-2.5l1-.034a1.25,1.25,0,1,1,.085,2.5l-1,.034Z"/><path d="M32.081,14.266a1.25,1.25,0,0,1-.041-2.5l1-.033a1.25,1.25,0,1,1,.083,2.5l-1,.033Z"/><path d="M22.066,34.1a1.25,1.25,0,0,1-1.249-1.208l-.033-1A1.251,1.251,0,0,1,21.991,30.6,1.238,1.238,0,0,1,23.283,31.8l.033,1a1.249,1.249,0,0,1-1.207,1.291Z"/><path d="M17.532,34.1a1.249,1.249,0,0,1-1.248-1.209l-.033-1a1.25,1.25,0,0,1,1.208-1.29A1.237,1.237,0,0,1,18.75,31.8l.033,1a1.249,1.249,0,0,1-1.208,1.29Z"/><path d="M13,34.1a1.249,1.249,0,0,1-1.248-1.209l-.034-1a1.25,1.25,0,0,1,2.5-.082l.034,1a1.25,1.25,0,0,1-1.208,1.29Z"/><path d="M1.918,14.216a1.25,1.25,0,0,1-.041-2.5l1-.033a1.25,1.25,0,1,1,.083,2.5l-1,.033Z"/><path d="M1.918,18.75a1.25,1.25,0,0,1-.041-2.5l1-.034a1.25,1.25,0,1,1,.083,2.5l-1,.034Z"/><path d="M1.918,23.284a1.25,1.25,0,0,1-.042-2.5l1-.034a1.269,1.269,0,0,1,1.292,1.206,1.251,1.251,0,0,1-1.207,1.292l-1,.034Z"/></svg>